<svg width="16" height="16" viewBox="0 0 16 16" fill="none" xmlns="http://www.w3.org/2000/svg">
<path fill-rule="evenodd" clip-rule="evenodd" d="M1.33337 3.33325C1.33337 2.80282 1.54409 2.29411 1.91916 1.91904C2.29423 1.54397 2.80294 1.33325 3.33337 1.33325H7.44804C7.9782 1.33354 8.48655 1.54432 8.86137 1.91925L14.1947 7.25259C14.5696 7.62764 14.7803 8.13626 14.7803 8.66659C14.7803 9.19691 14.5696 9.70553 14.1947 10.0806L10.0814 14.1953C9.89565 14.381 9.67516 14.5284 9.43249 14.6289C9.18981 14.7294 8.92971 14.7812 8.66704 14.7812C8.40437 14.7812 8.14427 14.7294 7.9016 14.6289C7.65892 14.5284 7.43843 14.381 7.25271 14.1953L1.91937 8.86192C1.54428 8.48693 1.33349 7.97831 1.33337 7.44792V3.33325ZM4.66671 3.99992C4.4899 3.99992 4.32033 4.07016 4.1953 4.19518C4.07028 4.32021 4.00004 4.48977 4.00004 4.66659C4.00004 4.8434 4.07028 5.01297 4.1953 5.13799C4.32033 5.26301 4.4899 5.33325 4.66671 5.33325C4.84352 5.33325 5.01375 5.26301 5.13878 5.13799C5.2638 5.01297 5.33404 4.8434 5.33404 4.66659C5.33404 4.48977 5.2638 4.32021 5.13878 4.19518C5.01375 4.07016 4.84352 3.99992 4.66671 3.99992Z" fill="#BB5D0C"/>
</svg>
