<svg width="227" height="171" viewBox="0 0 227 171" fill="none" xmlns="http://www.w3.org/2000/svg">
<path d="M99.4382 0V4.93121C99.4382 4.93121 99.0429 9.39676 102.186 9.86636C104.565 10.222 110.033 10.0428 112.678 13.5698C115.323 17.0969 114.38 22.0856 112.678 25.3857C111.188 28.276 108.253 31.1751 102.186 30.6765C95.7477 30.1474 91.8678 26.7966 91.6914 24.1512C91.6914 24.1512 91.6914 32.4139 102.186 34.3799C110.849 36.003 115.09 33.1434 117.44 29.6184C120.027 25.7358 121.32 22.7425 120.857 16.772C120.52 12.4278 118.332 7.59631 112.744 5.27033C107.542 3.10469 106.342 3.68205 106.342 3.68205V0H99.4382Z" fill="#595858"/>
<path d="M226.486 63.2126H0.00146484V170.312H226.486V63.2126Z" fill="#F78F35"/>
<path d="M84.7483 63.2126L0.00146484 141.037V159.918L103.539 63.2126H84.7483Z" fill="white"/>
<path d="M129.366 63.2126L12.3125 170.668H33.1723L148.156 63.2126H129.366Z" fill="white"/>
<path d="M174.112 63.2126L56.9653 170.296L78.1511 170.677L192.902 63.2126H174.112Z" fill="white"/>
<path d="M220.016 63.2126L103.539 170.312H124.434L226.486 74.7595V63.2126H220.016Z" fill="white"/>
<path d="M226.702 97.657L148.085 170.312H168.237L226.445 115.934L226.702 97.657Z" fill="white"/>
<path d="M226.486 134.81L187.414 170.677L207.437 170.65L226.486 152.511V134.81Z" fill="white"/>
<path d="M114.671 30.4464L112.292 29.7505L112.039 29.6766L0 63.1667L0.509909 64.8726L112.044 31.5332C112.044 31.5332 113.661 31.1974 114.671 30.4464Z" fill="#666562"/>
<path d="M114.685 29.6766L227 62.8302L226.465 64.6766L113 31.1837L114.685 29.6766Z" fill="#666562"/>
</svg>
