<svg width="191" height="205" viewBox="0 0 191 205" fill="none" xmlns="http://www.w3.org/2000/svg">
<rect width="191" height="205" fill="#F78F35"/>
<path d="M55.142 100.68V71.4H61.982V100.68H55.142ZM43.922 89.46V82.62H73.202V89.46H43.922ZM90.7347 102.24V75.36C90.7347 74.72 90.7547 73.98 90.7947 73.14C90.8347 72.3 90.8947 71.52 90.9747 70.8C91.0947 70.04 91.2347 69.52 91.3947 69.24L95.3547 70.32H81.0147V62.16C81.6547 62.04 82.5747 61.92 83.7747 61.8C85.0147 61.64 86.4547 61.52 88.0947 61.44C89.7347 61.36 91.5547 61.32 93.5547 61.32C95.5947 61.32 97.3147 61.4 98.7147 61.56C100.115 61.72 101.135 61.88 101.775 62.04L101.895 62.76C101.735 63.48 101.615 64.44 101.535 65.64C101.495 66.84 101.455 68.06 101.415 69.3C101.415 70.54 101.415 71.56 101.415 72.36V102.24H90.7347ZM79.8747 105V96.12H111.375V105H79.8747ZM128.907 105.72C126.547 105.72 124.367 105.5 122.367 105.06C120.407 104.66 118.847 104.2 117.687 103.68V94.92H118.347C119.187 95.48 120.527 96.08 122.367 96.72C124.247 97.36 126.307 97.68 128.547 97.68C130.627 97.68 132.327 97.42 133.647 96.9C134.967 96.38 135.947 95.68 136.587 94.8C137.227 93.88 137.547 92.82 137.547 91.62C137.547 90.06 136.967 88.78 135.807 87.78C134.647 86.74 132.747 86.22 130.107 86.22H124.767L123.147 82.44L135.867 66.78L137.487 70.14H117.867V61.8H144.987L145.707 62.4C145.827 62.68 145.927 63.04 146.007 63.48C146.087 63.92 146.127 64.3 146.127 64.62C146.127 65.66 145.927 66.6 145.527 67.44C145.167 68.24 144.587 69.1 143.787 70.02L132.447 82.56L131.367 79.32C135.007 79.08 138.027 79.5 140.427 80.58C142.867 81.66 144.707 83.18 145.947 85.14C147.187 87.06 147.807 89.24 147.807 91.68C147.807 94.44 147.087 96.88 145.647 99C144.247 101.08 142.147 102.72 139.347 103.92C136.547 105.12 133.067 105.72 128.907 105.72Z" fill="white"/>
<path d="M47.8074 152.292C47.8074 151.456 47.9541 150.657 48.2474 149.894C48.5408 149.131 48.9441 148.435 49.4574 147.804C49.9708 147.159 50.5574 146.601 51.2174 146.132C51.8921 145.648 52.5961 145.274 53.3294 145.01H53.5494C54.4588 145.494 55.2654 146.125 55.9694 146.902C56.6881 147.665 57.2528 148.486 57.6634 149.366C58.0741 150.231 58.2794 151.067 58.2794 151.874C58.2794 152.666 58.1328 153.385 57.8394 154.03C57.5608 154.675 57.1721 155.24 56.6734 155.724C56.1894 156.193 55.6101 156.56 54.9354 156.824C54.2754 157.088 53.5714 157.22 52.8234 157.22C51.9141 157.22 51.0781 157.015 50.3154 156.604C49.5528 156.179 48.9441 155.599 48.4894 154.866C48.0348 154.118 47.8074 153.26 47.8074 152.292ZM50.5574 151.764C50.5574 152.233 50.6601 152.688 50.8654 153.128C51.0708 153.568 51.3714 153.935 51.7674 154.228C52.1634 154.507 52.6328 154.646 53.1754 154.646C53.7181 154.646 54.1874 154.514 54.5834 154.25C54.9941 153.971 55.3241 153.627 55.5734 153.216C55.8374 152.805 56.0281 152.38 56.1454 151.94L55.9914 153.436C55.9621 152.864 55.8301 152.277 55.5954 151.676C55.3754 151.075 55.0894 150.503 54.7374 149.96C54.4001 149.417 54.0261 148.926 53.6154 148.486C53.2048 148.046 52.7941 147.679 52.3834 147.386L53.4834 147.474C53.1754 147.665 52.8528 147.892 52.5154 148.156C52.1781 148.405 51.8628 148.713 51.5694 149.08C51.2761 149.432 51.0341 149.835 50.8434 150.29C50.6528 150.73 50.5574 151.221 50.5574 151.764ZM55.2654 143.03C54.8401 143.03 54.4808 142.898 54.1874 142.634C53.8941 142.355 53.7474 141.989 53.7474 141.534C53.7474 141.065 53.8941 140.698 54.1874 140.434C54.4808 140.155 54.8401 140.016 55.2654 140.016C55.6908 140.016 56.0428 140.155 56.3214 140.434C56.6148 140.698 56.7614 141.065 56.7614 141.534C56.7614 141.989 56.6148 142.355 56.3214 142.634C56.0428 142.898 55.6908 143.03 55.2654 143.03ZM51.7454 143.47C51.3201 143.47 50.9608 143.338 50.6674 143.074C50.3888 142.795 50.2494 142.421 50.2494 141.952C50.2494 141.483 50.3888 141.116 50.6674 140.852C50.9608 140.588 51.3201 140.456 51.7454 140.456C52.1708 140.456 52.5228 140.588 52.8014 140.852C53.0948 141.116 53.2414 141.483 53.2414 141.952C53.2414 142.421 53.0948 142.795 52.8014 143.074C52.5228 143.338 52.1708 143.47 51.7454 143.47ZM67.2183 157V154.338H70.9583V156.56L70.5183 157H67.2183ZM59.0343 159.816C59.3716 159.904 59.7236 159.977 60.0903 160.036C60.4716 160.095 60.8603 160.124 61.2563 160.124C61.843 160.124 62.4003 160.058 62.9283 159.926C63.4563 159.794 63.9036 159.633 64.2703 159.442L63.4563 160.168C63.7203 159.772 63.9403 159.281 64.1163 158.694C64.307 158.122 64.4536 157.433 64.5563 156.626C64.6736 155.805 64.7323 154.851 64.7323 153.766C64.7323 152.534 64.681 151.375 64.5783 150.29C64.4756 149.205 64.3583 148.171 64.2263 147.188L67.1743 146.836H67.3943C67.5263 147.819 67.629 148.867 67.7023 149.982C67.7756 151.082 67.8123 152.277 67.8123 153.568C67.8123 155.196 67.6583 156.582 67.3503 157.726C67.0423 158.885 66.595 159.831 66.0083 160.564C65.4216 161.312 64.6956 161.855 63.8303 162.192C62.965 162.544 61.9676 162.72 60.8383 162.72C60.457 162.72 60.0683 162.698 59.6723 162.654C59.2763 162.61 58.9463 162.566 58.6823 162.522C58.4183 162.493 58.2863 162.478 58.2863 162.478V162.258L59.0343 159.816ZM70.9648 154.338H74.9468L73.8908 154.866C73.7735 154.675 73.6782 154.382 73.6048 153.986C73.5462 153.575 73.5168 153.099 73.5168 152.556V145.868L76.3988 145.516H76.5968V155.592L75.3428 154.338H79.6108V156.56L79.1708 157H70.5248V154.778L70.9648 154.338ZM73.4948 160.652C73.4948 160.183 73.6415 159.816 73.9348 159.552C74.2282 159.288 74.5875 159.156 75.0128 159.156C75.4235 159.156 75.7755 159.288 76.0688 159.552C76.3622 159.816 76.5088 160.183 76.5088 160.652C76.5088 161.121 76.3622 161.488 76.0688 161.752C75.7902 162.016 75.4308 162.148 74.9908 162.148C74.5802 162.148 74.2282 162.016 73.9348 161.752C73.6415 161.488 73.4948 161.121 73.4948 160.652ZM79.1616 157V154.778L79.6016 154.338H90.3596L89.6336 154.69C88.8709 154.294 88.0422 153.715 87.1476 152.952C86.2529 152.175 85.3142 151.251 84.3316 150.18C83.3489 149.109 82.3369 147.921 81.2956 146.616L83.1656 144.372H83.3636C84.9769 146.293 86.3922 147.899 87.6096 149.19C88.8416 150.466 89.9049 151.478 90.7996 152.226C91.6942 152.974 92.4496 153.517 93.0656 153.854C93.6962 154.177 94.2096 154.338 94.6056 154.338H96.4536V154.536L95.5736 157H79.1616ZM90.4036 146.946C89.9782 146.946 89.6189 146.814 89.3256 146.55C89.0469 146.286 88.9076 145.919 88.9076 145.45C88.9076 144.981 89.0469 144.614 89.3256 144.35C89.6189 144.086 89.9782 143.954 90.4036 143.954C90.8289 143.954 91.1809 144.086 91.4596 144.35C91.7529 144.614 91.8996 144.981 91.8996 145.45C91.8996 145.919 91.7529 146.286 91.4596 146.55C91.1809 146.814 90.8289 146.946 90.4036 146.946ZM111.424 152.886L111.402 154.976C111.197 155.24 110.904 155.533 110.522 155.856C110.141 156.179 109.679 156.45 109.136 156.67C108.594 156.89 107.985 157 107.31 157C106.548 157 105.851 156.831 105.22 156.494C104.604 156.142 104.113 155.658 103.746 155.042C103.394 154.426 103.218 153.693 103.218 152.842C103.218 152.329 103.284 151.837 103.416 151.368C103.563 150.884 103.812 150.407 104.164 149.938C104.531 149.454 105.044 148.985 105.704 148.53C106.379 148.061 107.237 147.584 108.278 147.1C109.334 146.616 110.61 146.117 112.106 145.604L111.424 148.266C110.662 148.545 109.95 148.831 109.29 149.124C108.63 149.403 108 149.718 107.398 150.07C106.797 150.422 106.196 150.833 105.594 151.302L106.694 150.07C106.489 150.422 106.335 150.789 106.232 151.17C106.144 151.537 106.1 151.911 106.1 152.292C106.1 152.996 106.306 153.531 106.716 153.898C107.127 154.25 107.626 154.426 108.212 154.426C108.784 154.426 109.334 154.279 109.862 153.986C110.39 153.693 110.911 153.326 111.424 152.886ZM116.264 157H111.05V154.184L110.61 154.8V144.944L113.47 144.614H113.69V155.592L112.436 154.338H116.704V156.56L116.264 157ZM110.522 142.964C110.948 142.964 111.3 142.832 111.578 142.568C111.872 142.289 112.018 141.923 112.018 141.468C112.018 140.999 111.872 140.632 111.578 140.368C111.3 140.089 110.948 139.95 110.522 139.95C110.097 139.95 109.738 140.089 109.444 140.368C109.151 140.632 109.004 140.999 109.004 141.468C109.004 141.923 109.151 142.289 109.444 142.568C109.738 142.832 110.097 142.964 110.522 142.964ZM107.002 143.404C107.428 143.404 107.78 143.272 108.058 143.008C108.352 142.729 108.498 142.355 108.498 141.886C108.498 141.417 108.352 141.05 108.058 140.786C107.78 140.522 107.428 140.39 107.002 140.39C106.577 140.39 106.218 140.522 105.924 140.786C105.646 141.05 105.506 141.417 105.506 141.886C105.506 142.355 105.646 142.729 105.924 143.008C106.218 143.272 106.577 143.404 107.002 143.404ZM116.254 154.338H120.236L119.18 154.866C119.063 154.675 118.967 154.382 118.894 153.986C118.835 153.575 118.806 153.099 118.806 152.556V145.868L121.688 145.516H121.886V155.592L120.632 154.338H124.9V156.56L124.46 157H115.814V154.778L116.254 154.338ZM120.302 143.69C119.877 143.69 119.517 143.558 119.224 143.294C118.945 143.03 118.806 142.663 118.806 142.194C118.806 141.725 118.945 141.358 119.224 141.094C119.517 140.83 119.877 140.698 120.302 140.698C120.727 140.698 121.079 140.83 121.358 141.094C121.651 141.358 121.798 141.725 121.798 142.194C121.798 142.663 121.651 143.03 121.358 143.294C121.079 143.558 120.727 143.69 120.302 143.69ZM136.639 158.144C136.125 157.836 135.59 157.601 135.033 157.44C134.475 157.279 133.867 157.161 133.207 157.088C132.547 157.029 131.784 157 130.919 157H124.407V154.778L124.847 154.338H128.763L127.685 154.91C127.582 154.719 127.509 154.448 127.465 154.096C127.435 153.744 127.421 153.341 127.421 152.886V147.364L130.303 147.012H130.501V155.658L129.247 154.338H131.227C131.916 154.338 132.517 154.389 133.031 154.492C133.559 154.595 134.043 154.763 134.483 154.998L133.757 156.076V146.594L136.639 146.264H136.837V156.67L135.935 155.416C136.595 155.372 137.218 155.24 137.805 155.02C138.406 154.8 138.941 154.514 139.411 154.162C139.88 153.795 140.254 153.392 140.533 152.952L140.093 154.91V145.89L142.975 145.56H143.173V151.698C143.173 152.857 142.916 153.869 142.403 154.734C141.904 155.585 141.171 156.289 140.203 156.846C139.235 157.403 138.047 157.836 136.639 158.144Z" fill="#FEFEFE"/>
</svg>
