<svg width="22" height="22" viewBox="0 0 22 22" fill="none" xmlns="http://www.w3.org/2000/svg">
<path d="M2.80871 6.88433C3.57172 5.3659 4.74179 4.08946 6.18827 3.19755C7.63475 2.30565 9.30069 1.83338 11 1.8335C13.4705 1.8335 15.5458 2.74191 17.1325 4.22141L14.5045 6.85041C13.5539 5.942 12.3457 5.47908 11 5.47908C8.61212 5.47908 6.59088 7.09241 5.87129 9.2585C5.68796 9.8085 5.58346 10.3952 5.58346 11.0002C5.58346 11.6052 5.68796 12.1918 5.87129 12.7418C6.59179 14.9088 8.61212 16.5212 11 16.5212C12.233 16.5212 13.2825 16.1958 14.1039 15.6458C14.58 15.3323 14.9877 14.9255 15.3021 14.45C15.6166 13.9745 15.8314 13.4402 15.9335 12.8793H11V9.33366H19.6332C19.7414 9.93316 19.8 10.5583 19.8 11.2082C19.8 14.0004 18.8009 16.3507 17.0665 17.9457C15.5504 19.3464 13.475 20.1668 11 20.1668C9.79612 20.1673 8.60391 19.9305 7.49154 19.47C6.37917 19.0095 5.36845 18.3343 4.51715 17.483C3.66585 16.6318 2.99066 15.621 2.53016 14.5087C2.06967 13.3963 1.83289 12.2041 1.83337 11.0002C1.83337 9.52066 2.18721 8.12183 2.80871 6.88433Z" fill="#BB5D0C"/>
</svg>
