<svg width="18" height="18" viewBox="0 0 18 18" fill="none" xmlns="http://www.w3.org/2000/svg">
<path fill-rule="evenodd" clip-rule="evenodd" d="M12.7725 11.0685C12.8189 10.8829 12.9344 10.722 13.0955 10.6188C13.2566 10.5156 13.4511 10.4779 13.6391 10.5133C13.8271 10.5488 13.9945 10.6547 14.1069 10.8095C14.2194 10.9643 14.2684 11.1562 14.244 11.346L14.2275 11.4323L13.71 13.5H14.25V12.75C14.2504 12.5589 14.3237 12.3752 14.455 12.2363C14.5863 12.0975 14.7656 12.0139 14.9564 12.0028C15.1472 11.9917 15.335 12.0539 15.4815 12.1766C15.628 12.2993 15.7222 12.4732 15.7447 12.663L15.75 12.75V13.5C15.9412 13.5002 16.125 13.5734 16.264 13.7046C16.403 13.8359 16.4867 14.0152 16.4979 14.206C16.5091 14.3969 16.447 14.5848 16.3243 14.7314C16.2016 14.878 16.0276 14.9722 15.8377 14.9948L15.75 15V15.75C15.7498 15.9412 15.6766 16.125 15.5454 16.264C15.4141 16.403 15.2348 16.4867 15.044 16.4979C14.8531 16.5091 14.6652 16.447 14.5186 16.3243C14.372 16.2016 14.2778 16.0276 14.2552 15.8378L14.25 15.75V15H12.75C12.6444 14.9999 12.54 14.9776 12.4436 14.9344C12.3473 14.8912 12.2611 14.8281 12.1908 14.7493C12.1205 14.6705 12.0676 14.5777 12.0357 14.4771C12.0037 14.3764 11.9933 14.2702 12.0052 14.1653L12.0225 14.0678L12.7725 11.0685ZM10.125 10.5C10.6223 10.5 11.0992 10.6975 11.4508 11.0492C11.8025 11.4008 12 11.8777 12 12.375V12.6188C12 13.125 11.8192 13.614 11.49 13.998L10.6305 15H11.25C11.4489 15 11.6397 15.079 11.7803 15.2197C11.921 15.3603 12 15.5511 12 15.75C12 15.9489 11.921 16.1397 11.7803 16.2803C11.6397 16.421 11.4489 16.5 11.25 16.5H9C8.85663 16.5 8.71625 16.4589 8.59551 16.3816C8.47477 16.3043 8.37872 16.194 8.31874 16.0638C8.25876 15.9335 8.23736 15.7889 8.25708 15.6469C8.2768 15.5048 8.33681 15.3715 8.43 15.2625L10.3507 13.0215C10.4467 12.9092 10.4996 12.7665 10.5 12.6188V12.375C10.5 12.2755 10.4605 12.1802 10.3902 12.1098C10.3198 12.0395 10.2245 12 10.125 12C10.0255 12 9.93016 12.0395 9.85983 12.1098C9.78951 12.1802 9.75 12.2755 9.75 12.375C9.75 12.5739 9.67098 12.7647 9.53033 12.9053C9.38968 13.046 9.19891 13.125 9 13.125C8.80109 13.125 8.61032 13.046 8.46967 12.9053C8.32902 12.7647 8.25 12.5739 8.25 12.375C8.25 11.8777 8.44754 11.4008 8.79917 11.0492C9.15081 10.6975 9.62772 10.5 10.125 10.5ZM9 2.25C10.0083 2.24982 11.0039 2.47555 11.9136 2.9106C12.8232 3.34566 13.6239 3.979 14.2567 4.76408C14.8894 5.54916 15.3383 6.46603 15.5702 7.44734C15.8022 8.42864 15.8113 9.44945 15.597 10.4348C15.4666 10.0995 15.2577 9.80032 14.9878 9.56242C14.718 9.32452 14.395 9.15481 14.046 9.0675C13.6903 8.97845 13.3182 8.97768 12.9621 9.06526C12.6061 9.15284 12.2768 9.32611 12.003 9.57C11.4949 9.22972 10.9039 9.03388 10.2931 9.00343C9.68229 8.97297 9.07471 9.10904 8.53526 9.3971C7.99582 9.68515 7.54477 10.1144 7.23033 10.6389C6.91588 11.1634 6.74986 11.7635 6.75 12.375C6.75 13.0395 7.038 13.6365 7.4955 14.0475L7.2915 14.286C7.02548 14.5966 6.84916 14.9739 6.7815 15.3773C5.27334 14.8541 3.99939 13.8134 3.18587 12.44C2.37235 11.0665 2.07192 9.44919 2.33792 7.8752C2.60392 6.30121 3.41915 4.87243 4.63883 3.84259C5.8585 2.81274 7.40369 2.24848 9 2.25ZM8.25 4.5C8.05109 4.5 7.86032 4.57902 7.71967 4.71967C7.57902 4.86033 7.5 5.05109 7.5 5.25V7.5H6.75C6.55109 7.5 6.36032 7.57902 6.21967 7.71967C6.07902 7.86033 6 8.05109 6 8.25C6 8.44892 6.07902 8.63968 6.21967 8.78033C6.36032 8.92099 6.55109 9 6.75 9H8.25C8.44891 9 8.63968 8.92099 8.78033 8.78033C8.92098 8.63968 9 8.44892 9 8.25V5.25C9 5.05109 8.92098 4.86033 8.78033 4.71967C8.63968 4.57902 8.44891 4.5 8.25 4.5Z" fill="#BB5D0C"/>
</svg>
