<svg width="787" height="28" viewBox="0 0 787 28" fill="none" xmlns="http://www.w3.org/2000/svg">
<path d="M390 16.4608C380.943 17.748 374.918 18.3964 368.861 19.1997C361.594 20.1633 355.483 15.5123 348.564 13.5622C341.977 11.7056 333.042 13.8671 324.179 15.3285C307.062 18.151 299.769 12.2799 292.215 10.8185C277.752 8.02052 272.119 13.2283 266.93 14.0364C260.706 15.0057 256.571 18.7061 233.961 19.2045C224.111 19.4217 218.996 17.7576 199.826 17.5883C191.702 17.5165 186.604 19.0352 172.811 19.2045C165.699 19.2919 160.69 16.7898 152.929 14.8542C136.515 10.7605 120.11 19.0352 109.122 20.1675C78.8898 23.2832 72.5841 16.7898 65.0367 14.8542C53.3765 11.8638 44.105 15.493 36.5188 16.4559C28.9714 17.4286 18.606 18.0673 11.4797 19.1997C8.68106 19.3642 4.40532 19.3642 0 19.3642" stroke="#777370" stroke-width="14" stroke-linecap="round"/>
<path d="M780 13.4608C770.943 14.748 764.918 15.3964 758.861 16.1997C751.594 17.1633 745.483 12.5123 738.564 10.5622C731.977 8.70563 723.042 10.8671 714.179 12.3285C697.062 15.151 689.769 9.27987 682.215 7.81848C667.752 5.02052 662.119 10.2283 656.93 11.0364C650.706 12.0057 646.571 15.7061 623.961 16.2045C614.111 16.4217 608.996 14.7576 589.826 14.5883C581.702 14.5165 576.604 16.0352 562.811 16.2045C555.699 16.2919 550.69 13.7898 542.929 11.8542C526.515 7.76053 510.11 16.0352 499.122 17.1675C468.89 20.2832 462.584 13.7898 455.037 11.8542C443.376 8.86381 434.105 12.493 426.519 13.4559C418.971 14.4286 408.606 15.0673 401.48 16.1997C398.681 16.3642 394.405 16.3642 390 16.3642" stroke="#777370" stroke-width="14" stroke-linecap="round"/>
</svg>
