<svg width="175" height="58" viewBox="0 0 175 58" fill="none" xmlns="http://www.w3.org/2000/svg">
<path d="M27.9011 24.5149C31.7774 26.3327 34.6982 28.0697 37.1285 30.1803C37.8412 30.7992 38.5118 31.4504 39.1519 32.145C39.4487 32.4672 39.7391 32.7989 40.024 33.141C41.9728 35.4807 43.6702 38.3125 45.4904 42.0023H39.1519V58H27.9011V24.5149Z" fill="url(#paint0_radial_394_5234)"/>
<path fill-rule="evenodd" clip-rule="evenodd" d="M16.1446 0.303861C16.74 0.00820407 17.2417 -0.0853325 17.8466 0.0838695C18.6101 0.297531 19.112 0.987503 19.4172 1.71239C19.6267 2.21011 19.9939 2.62722 20.4633 2.90093L29.8265 8.36061L41.1308 16.1555C41.5447 16.4413 42.0374 16.5945 42.542 16.5945H42.7572C43.2731 16.5946 43.7513 16.8627 44.0167 17.3005L44.0643 17.3789C48.5273 22.6057 50.9911 25.5892 54.2399 32.5148C57.1072 31.3103 59.1184 28.4978 59.1185 25.2206C59.1184 20.8465 55.5355 17.3006 51.1159 17.3005H46.5514C45.71 15.9461 44.941 15.3265 43.1928 14.5557L40.0794 12.6016L33.4357 8.36061H54.5228C63.2745 8.36067 70.3692 15.3825 70.3692 24.0443V26.3969C70.3692 33.1462 66.0617 38.8997 60.0192 41.1114L71.4579 58H57.7525C54.1669 52.5491 50.6658 47.0669 47.5403 42.0807C47.3129 41.7178 47.0871 41.3571 46.8632 40.9988C45.4211 38.3839 44.1437 36.1005 42.6009 34.0577L42.4507 33.8608C42.2635 33.6175 42.0722 33.3776 41.8761 33.141C41.5046 32.6925 41.1271 32.2556 40.7426 31.8294C40.2259 31.2569 39.6964 30.7032 39.1519 30.1665C36.0584 27.1174 32.5502 24.4609 27.9803 22.0055L27.9011 21.952C27.0014 21.3468 18.7205 15.8067 17.5215 16.1242C17.4074 16.1545 17.2729 16.3061 17.1239 16.5517C16.6946 17.2593 16.145 18.7472 15.6168 20.3643C14.9229 22.4885 14.2203 24.7936 13.8983 25.8661L13.7177 26.4753L13.6053 26.7826C13.1051 28.1604 11.1042 33.7779 11.1038 35.4934C11.1038 36.2776 16.7295 39.9634 21.4824 41.5317C22.0226 41.7099 22.5994 41.8181 23.147 41.8817C24.4976 42.0386 25.671 41.9249 25.6816 41.9239H25.6827L25.5319 42.1162C24.7757 43.0721 23.976 43.9347 23.147 44.7045C21.0031 46.7846 18.2579 48.4501 15.1972 49.1528C14.1196 49.4113 13.0619 49.5314 12.0503 49.5141C12.048 49.5141 12.0456 49.5144 12.0432 49.5144C7.55718 49.4348 3.97749 46.6489 3.57693 41.2179C2.19517 40.8281 2.02712 39.7326 2.23002 37.0619C-0.487004 34.9508 -0.989095 33.6864 2.23002 31.1019L3.50643 26.7178C3.55143 26.5632 3.5187 26.3625 3.40823 26.2445C3.15501 25.9742 2.87787 25.6715 2.97719 25.3162L5.63691 15.8104L6.90462 12.5169C6.47313 10.872 6.89127 9.97138 9.28141 8.43923C9.22542 7.27131 9.32775 6.65038 10.7078 5.85122L15.2109 1.03497C15.4824 0.744572 15.7873 0.481322 16.1446 0.303861ZM5.70421 35.6021C5.17913 35.6022 4.75355 36.0234 4.75354 36.543C4.75354 37.0627 5.17913 37.4842 5.70421 37.4842C6.22931 37.4842 6.65511 37.0628 6.65511 36.543C6.6551 36.0233 6.22931 35.6021 5.70421 35.6021ZM3.1008 34.1904C2.39647 34.1904 1.94658 34.9338 2.27878 35.5484C2.62387 36.1869 3.54343 36.2012 3.90863 35.5738C4.26668 34.9587 3.81811 34.1904 3.1008 34.1904ZM4.51593 26.5839L2.75308 31.082L4.77529 33.0832L7.22533 17.6057L4.51593 26.5839ZM42.4679 17.8796C41.9428 17.8796 41.5172 18.3008 41.5172 18.8205C41.5172 19.3402 41.9428 19.7616 42.4679 19.7616C42.993 19.7616 43.4188 19.3402 43.4188 18.8205C43.4188 18.3008 42.993 17.8796 42.4679 17.8796ZM20.917 10.3512L39.6156 18.5067L20.917 6.7441V10.3512ZM9.19053 10.1944C8.66546 10.1944 8.23986 10.6158 8.23986 11.1355C8.23988 11.6552 8.66547 12.0764 9.19053 12.0764C9.71563 12.0764 10.1414 11.6552 10.1414 11.1355C10.1414 10.6158 9.71564 10.1944 9.19053 10.1944Z" fill="url(#paint1_radial_394_5234)"/>
<path d="M84.3502 31.668L91.6112 15.2462H93.4714L100.492 31.668H97.1919L95.9017 28.5796H88.8808L87.6207 31.668H84.3502ZM89.991 25.8773H94.8216L92.4213 19.9975L89.991 25.8773Z" fill="url(#paint2_radial_394_5234)"/>
<path d="M102.295 15.2462H105.026V26.5603C105.026 28.0451 105.356 28.5499 106.166 29.0251L107.636 29.8566L106.436 31.9947C103.615 30.688 102.295 29.7081 102.295 27.0651V15.2462Z" fill="url(#paint3_radial_394_5234)"/>
<path d="M113.56 31.668V15.2462H121.451C125.171 15.2462 127.422 17.6516 127.422 20.8884C127.422 23.2641 125.771 25.1349 123.551 25.8179L127.692 31.668H123.851L120.371 26.5009H116.62V31.668H113.56ZM116.62 18.1267V23.6204H121.211C123.401 23.6204 124.361 22.3435 124.361 20.8884C124.361 19.4036 123.401 18.1267 121.211 18.1267H116.62Z" fill="url(#paint4_radial_394_5234)"/>
<path d="M139.856 31.668V30.1238H139.796C138.925 31.282 137.335 31.9947 135.595 31.9947C131.395 31.9947 128.964 28.6093 128.964 25.3428C128.964 22.2247 131.605 18.6909 135.745 18.6909C137.635 18.6909 139.076 19.4927 139.796 20.5618H139.856V19.0176H142.586V31.668H139.856ZM131.875 25.3428C131.875 27.6294 133.735 29.4408 135.955 29.4408C138.115 29.4408 139.946 27.6294 139.946 25.3428C139.946 23.0562 138.115 21.2448 135.955 21.2448C133.735 21.2448 131.875 23.0562 131.875 25.3428Z" fill="url(#paint5_radial_394_5234)"/>
<path d="M146.098 26.3228V19.0176H148.859V26.4415C148.859 28.5499 150.179 29.4408 151.859 29.4408C153.989 29.4408 155.039 28.1342 155.039 26.1743V19.0176H157.77V31.282C157.77 35.1424 154.319 36.8351 151.949 36.8351C149.069 36.8351 147.779 35.766 146.518 34.3703L148.859 32.9449C149.729 33.7764 150.599 34.2812 151.769 34.2812C153.599 34.2812 155.189 33.1825 155.189 30.9553V30.2723H155.129C154.049 31.4898 153.059 31.9947 151.289 31.9947C148.439 31.9947 146.098 29.8863 146.098 26.3228Z" fill="url(#paint6_radial_394_5234)"/>
<path d="M171.178 31.668V30.1238H171.118C170.248 31.282 168.658 31.9947 166.917 31.9947C162.717 31.9947 160.287 28.6093 160.287 25.3428C160.287 22.2247 162.927 18.6909 167.068 18.6909C168.958 18.6909 170.398 19.4927 171.118 20.5618H171.178V19.0176H173.908V31.668H171.178ZM163.197 25.3428C163.197 27.6294 165.057 29.4408 167.278 29.4408C169.438 29.4408 171.268 27.6294 171.268 25.3428C171.268 23.0562 169.438 21.2448 167.278 21.2448C165.057 21.2448 163.197 23.0562 163.197 25.3428Z" fill="url(#paint7_radial_394_5234)"/>
<path d="M84.9993 49.9959V44.9924H85.9318V49.9959H84.9993Z" fill="url(#paint8_radial_394_5234)"/>
<path d="M87.487 49.9959V46.1415H88.328V46.6301H88.3371C88.5748 46.2682 89.0045 46.042 89.5347 46.042C90.3483 46.042 91.0431 46.7115 91.0431 47.6706V49.9959H90.2112V47.8516C90.2112 47.1549 89.8364 46.8653 89.2787 46.8653C88.7394 46.8653 88.328 47.2092 88.328 47.8425V49.9959H87.487Z" fill="url(#paint9_radial_394_5234)"/>
<path d="M92.1116 46.9196V46.1415H92.587V45.1191L93.4281 44.8929V46.1415H94.0954V46.9196H93.4281V48.4397C93.4281 48.8559 93.5195 49.0459 93.7755 49.1907L94.2234 49.444L93.8486 50.0955C92.9893 49.6973 92.587 49.3988 92.587 48.5935V46.9196H92.1116Z" fill="url(#paint10_radial_394_5234)"/>
<path d="M98.2345 48.7654L98.9384 49.1635C98.4722 49.7426 97.8323 50.0955 97.1284 50.0955C95.7754 50.0955 94.98 49.0911 94.98 48.0687C94.98 47.0463 95.7754 46.042 97.1284 46.042C97.942 46.042 99.1487 46.7025 99.1487 48.2044V48.3582H95.9216C95.9673 48.9464 96.525 49.3626 97.1101 49.3626C97.558 49.3626 97.942 49.1545 98.2345 48.7654ZM95.9216 47.6706H98.1705C97.9968 47.0825 97.5489 46.7748 97.0187 46.7748C96.4884 46.7748 96.0496 47.1006 95.9216 47.6706Z" fill="url(#paint11_radial_394_5234)"/>
<path d="M100.359 49.9959V46.1415H101.146V46.5667H101.164C101.301 46.2501 101.594 46.042 101.932 46.042C102.115 46.042 102.279 46.0872 102.389 46.1596L102.087 46.9739C102.005 46.9106 101.859 46.8653 101.776 46.8653C101.475 46.8653 101.2 47.1006 101.2 47.4444V49.9959H100.359Z" fill="url(#paint12_radial_394_5234)"/>
<path d="M103.261 49.9959V46.1415H104.102V46.6301H104.111C104.348 46.2682 104.778 46.042 105.308 46.042C106.122 46.042 106.817 46.7115 106.817 47.6706V49.9959H105.985V47.8516C105.985 47.1549 105.61 46.8653 105.052 46.8653C104.513 46.8653 104.102 47.2092 104.102 47.8425V49.9959H103.261Z" fill="url(#paint13_radial_394_5234)"/>
<path d="M111.268 49.9959V49.5254H111.249C110.984 49.8783 110.5 50.0955 109.97 50.0955C108.69 50.0955 107.949 49.064 107.949 48.0687C107.949 47.1187 108.754 46.042 110.015 46.042C110.591 46.042 111.03 46.2863 111.249 46.612H111.268V46.1415H112.1V49.9959H111.268ZM108.836 48.0687C108.836 48.7654 109.403 49.3173 110.079 49.3173C110.737 49.3173 111.295 48.7654 111.295 48.0687C111.295 47.372 110.737 46.8201 110.079 46.8201C109.403 46.8201 108.836 47.372 108.836 48.0687Z" fill="url(#paint14_radial_394_5234)"/>
<path d="M113.179 46.9196V46.1415H113.654V45.1191L114.495 44.8929V46.1415H115.163V46.9196H114.495V48.4397C114.495 48.8559 114.587 49.0459 114.843 49.1907L115.291 49.444L114.916 50.0955C114.057 49.6973 113.654 49.3988 113.654 48.5935V46.9196H113.179Z" fill="url(#paint15_radial_394_5234)"/>
<path d="M116.294 49.9959V46.1415H117.126V49.9959H116.294ZM116.248 45.3543C116.248 45.101 116.45 44.8929 116.715 44.8929C116.971 44.8929 117.181 45.101 117.181 45.3543C117.181 45.6077 116.971 45.8158 116.715 45.8158C116.45 45.8158 116.248 45.6077 116.248 45.3543Z" fill="url(#paint16_radial_394_5234)"/>
<path d="M118.277 48.0687C118.277 47.0463 119.073 46.042 120.426 46.042C121.788 46.042 122.574 47.0463 122.574 48.0687C122.574 49.0911 121.788 50.0955 120.426 50.0955C119.073 50.0955 118.277 49.0911 118.277 48.0687ZM119.164 48.0687C119.164 48.7654 119.694 49.3173 120.426 49.3173C121.157 49.3173 121.696 48.7654 121.696 48.0687C121.696 47.372 121.157 46.8201 120.426 46.8201C119.694 46.8201 119.164 47.372 119.164 48.0687Z" fill="url(#paint17_radial_394_5234)"/>
<path d="M123.721 49.9959V46.1415H124.562V46.6301H124.571C124.809 46.2682 125.238 46.042 125.768 46.042C126.582 46.042 127.277 46.7115 127.277 47.6706V49.9959H126.445V47.8516C126.445 47.1549 126.07 46.8653 125.512 46.8653C124.973 46.8653 124.562 47.2092 124.562 47.8425V49.9959H123.721Z" fill="url(#paint18_radial_394_5234)"/>
<path d="M131.728 49.9959V49.5254H131.71C131.444 49.8783 130.96 50.0955 130.43 50.0955C129.15 50.0955 128.409 49.064 128.409 48.0687C128.409 47.1187 129.214 46.042 130.475 46.042C131.051 46.042 131.49 46.2863 131.71 46.612H131.728V46.1415H132.56V49.9959H131.728ZM129.296 48.0687C129.296 48.7654 129.863 49.3173 130.539 49.3173C131.198 49.3173 131.755 48.7654 131.755 48.0687C131.755 47.372 131.198 46.8201 130.539 46.8201C129.863 46.8201 129.296 47.372 129.296 48.0687Z" fill="url(#paint19_radial_394_5234)"/>
<path d="M134.014 44.9924H134.846V48.4397C134.846 48.8921 134.946 49.0459 135.193 49.1907L135.641 49.444L135.275 50.0955C134.416 49.6973 134.014 49.3988 134.014 48.5935V44.9924Z" fill="url(#paint20_radial_394_5234)"/>
<path d="M142.218 48.5302L142.968 49.073C142.41 49.7697 141.624 50.0955 140.819 50.0955C139.302 50.0955 138.104 48.9645 138.104 47.4987C138.104 46.0329 139.302 44.8929 140.819 44.8929C141.624 44.8929 142.41 45.2186 142.968 45.9153L142.2 46.4944C141.88 46.0329 141.386 45.7705 140.819 45.7705C139.905 45.7705 139.082 46.5215 139.082 47.4987C139.082 48.4668 139.905 49.2268 140.819 49.2268C141.386 49.2268 141.898 48.9645 142.218 48.5302Z" fill="url(#paint21_radial_394_5234)"/>
<path d="M143.808 48.0687C143.808 47.0463 144.603 46.042 145.956 46.042C147.318 46.042 148.105 47.0463 148.105 48.0687C148.105 49.0911 147.318 50.0955 145.956 50.0955C144.603 50.0955 143.808 49.0911 143.808 48.0687ZM144.695 48.0687C144.695 48.7654 145.225 49.3173 145.956 49.3173C146.688 49.3173 147.227 48.7654 147.227 48.0687C147.227 47.372 146.688 46.8201 145.956 46.8201C145.225 46.8201 144.695 47.372 144.695 48.0687Z" fill="url(#paint22_radial_394_5234)"/>
<path d="M149.251 49.9959V47.5801C149.251 46.6029 149.91 46.042 150.677 46.042C151.263 46.042 151.692 46.3134 151.838 46.7206H151.857C152.012 46.3134 152.442 46.042 153.027 46.042C153.786 46.042 154.453 46.6029 154.453 47.5801V49.9959H153.612V47.5892C153.612 47.1277 153.31 46.8653 152.972 46.8653C152.57 46.8653 152.268 47.1096 152.268 47.7068V49.9959H151.436V47.7068C151.436 47.1096 151.135 46.8653 150.732 46.8653C150.385 46.8653 150.092 47.1277 150.092 47.5892V49.9959H149.251Z" fill="url(#paint23_radial_394_5234)"/>
<path d="M156.716 46.1415V46.612H156.725C157.027 46.2501 157.475 46.042 158.005 46.042C159.285 46.042 160.026 47.0734 160.026 48.0687C160.026 49.0187 159.23 50.0955 157.969 50.0955C157.393 50.0955 156.945 49.8512 156.725 49.5254H156.716V51.326H155.875V46.1415H156.716ZM159.139 48.0687C159.139 47.372 158.581 46.8201 157.905 46.8201C157.247 46.8201 156.68 47.372 156.68 48.0687C156.68 48.7654 157.247 49.3173 157.905 49.3173C158.581 49.3173 159.139 48.7654 159.139 48.0687Z" fill="url(#paint24_radial_394_5234)"/>
<path d="M164.195 49.9959V49.5254H164.177C163.911 49.8783 163.427 50.0955 162.897 50.0955C161.617 50.0955 160.876 49.064 160.876 48.0687C160.876 47.1187 161.681 46.042 162.942 46.042C163.518 46.042 163.957 46.2863 164.177 46.612H164.195V46.1415H165.027V49.9959H164.195ZM161.763 48.0687C161.763 48.7654 162.33 49.3173 163.006 49.3173C163.665 49.3173 164.222 48.7654 164.222 48.0687C164.222 47.372 163.665 46.8201 163.006 46.8201C162.33 46.8201 161.763 47.372 161.763 48.0687Z" fill="url(#paint25_radial_394_5234)"/>
<path d="M166.463 49.9959V46.1415H167.304V46.6301H167.313C167.55 46.2682 167.98 46.042 168.51 46.042C169.324 46.042 170.019 46.7115 170.019 47.6706V49.9959H169.187V47.8516C169.187 47.1549 168.812 46.8653 168.254 46.8653C167.715 46.8653 167.304 47.2092 167.304 47.8425V49.9959H166.463Z" fill="url(#paint26_radial_394_5234)"/>
<path d="M171.444 48.3673V46.1415H172.285V48.4035C172.285 49.0459 172.687 49.3173 173.199 49.3173C173.848 49.3173 174.168 48.9192 174.168 48.3221V46.1415H175V49.8783C175 51.0545 173.949 51.5703 173.226 51.5703C172.349 51.5703 171.956 51.2445 171.572 50.8193L172.285 50.385C172.55 50.6383 172.815 50.7921 173.172 50.7921C173.729 50.7921 174.214 50.4574 174.214 49.7788V49.5707H174.196C173.866 49.9416 173.565 50.0955 173.025 50.0955C172.157 50.0955 171.444 49.453 171.444 48.3673Z" fill="url(#paint27_radial_394_5234)"/>
<defs>
<radialGradient id="paint0_radial_394_5234" cx="0" cy="0" r="1" gradientUnits="userSpaceOnUse" gradientTransform="translate(87.5 29) rotate(90) scale(29 87.5)">
<stop stop-color="#F78F35"/>
<stop offset="1" stop-color="#BB5D0C"/>
</radialGradient>
<radialGradient id="paint1_radial_394_5234" cx="0" cy="0" r="1" gradientUnits="userSpaceOnUse" gradientTransform="translate(87.5 29) rotate(90) scale(29 87.5)">
<stop stop-color="#F78F35"/>
<stop offset="1" stop-color="#BB5D0C"/>
</radialGradient>
<radialGradient id="paint2_radial_394_5234" cx="0" cy="0" r="1" gradientUnits="userSpaceOnUse" gradientTransform="translate(87.5 29) rotate(90) scale(29 87.5)">
<stop stop-color="#F78F35"/>
<stop offset="1" stop-color="#BB5D0C"/>
</radialGradient>
<radialGradient id="paint3_radial_394_5234" cx="0" cy="0" r="1" gradientUnits="userSpaceOnUse" gradientTransform="translate(87.5 29) rotate(90) scale(29 87.5)">
<stop stop-color="#F78F35"/>
<stop offset="1" stop-color="#BB5D0C"/>
</radialGradient>
<radialGradient id="paint4_radial_394_5234" cx="0" cy="0" r="1" gradientUnits="userSpaceOnUse" gradientTransform="translate(87.5 29) rotate(90) scale(29 87.5)">
<stop stop-color="#F78F35"/>
<stop offset="1" stop-color="#BB5D0C"/>
</radialGradient>
<radialGradient id="paint5_radial_394_5234" cx="0" cy="0" r="1" gradientUnits="userSpaceOnUse" gradientTransform="translate(87.5 29) rotate(90) scale(29 87.5)">
<stop stop-color="#F78F35"/>
<stop offset="1" stop-color="#BB5D0C"/>
</radialGradient>
<radialGradient id="paint6_radial_394_5234" cx="0" cy="0" r="1" gradientUnits="userSpaceOnUse" gradientTransform="translate(87.5 29) rotate(90) scale(29 87.5)">
<stop stop-color="#F78F35"/>
<stop offset="1" stop-color="#BB5D0C"/>
</radialGradient>
<radialGradient id="paint7_radial_394_5234" cx="0" cy="0" r="1" gradientUnits="userSpaceOnUse" gradientTransform="translate(87.5 29) rotate(90) scale(29 87.5)">
<stop stop-color="#F78F35"/>
<stop offset="1" stop-color="#BB5D0C"/>
</radialGradient>
<radialGradient id="paint8_radial_394_5234" cx="0" cy="0" r="1" gradientUnits="userSpaceOnUse" gradientTransform="translate(87.5 29) rotate(90) scale(29 87.5)">
<stop stop-color="#F78F35"/>
<stop offset="1" stop-color="#BB5D0C"/>
</radialGradient>
<radialGradient id="paint9_radial_394_5234" cx="0" cy="0" r="1" gradientUnits="userSpaceOnUse" gradientTransform="translate(87.5 29) rotate(90) scale(29 87.5)">
<stop stop-color="#F78F35"/>
<stop offset="1" stop-color="#BB5D0C"/>
</radialGradient>
<radialGradient id="paint10_radial_394_5234" cx="0" cy="0" r="1" gradientUnits="userSpaceOnUse" gradientTransform="translate(87.5 29) rotate(90) scale(29 87.5)">
<stop stop-color="#F78F35"/>
<stop offset="1" stop-color="#BB5D0C"/>
</radialGradient>
<radialGradient id="paint11_radial_394_5234" cx="0" cy="0" r="1" gradientUnits="userSpaceOnUse" gradientTransform="translate(87.5 29) rotate(90) scale(29 87.5)">
<stop stop-color="#F78F35"/>
<stop offset="1" stop-color="#BB5D0C"/>
</radialGradient>
<radialGradient id="paint12_radial_394_5234" cx="0" cy="0" r="1" gradientUnits="userSpaceOnUse" gradientTransform="translate(87.5 29) rotate(90) scale(29 87.5)">
<stop stop-color="#F78F35"/>
<stop offset="1" stop-color="#BB5D0C"/>
</radialGradient>
<radialGradient id="paint13_radial_394_5234" cx="0" cy="0" r="1" gradientUnits="userSpaceOnUse" gradientTransform="translate(87.5 29) rotate(90) scale(29 87.5)">
<stop stop-color="#F78F35"/>
<stop offset="1" stop-color="#BB5D0C"/>
</radialGradient>
<radialGradient id="paint14_radial_394_5234" cx="0" cy="0" r="1" gradientUnits="userSpaceOnUse" gradientTransform="translate(87.5 29) rotate(90) scale(29 87.5)">
<stop stop-color="#F78F35"/>
<stop offset="1" stop-color="#BB5D0C"/>
</radialGradient>
<radialGradient id="paint15_radial_394_5234" cx="0" cy="0" r="1" gradientUnits="userSpaceOnUse" gradientTransform="translate(87.5 29) rotate(90) scale(29 87.5)">
<stop stop-color="#F78F35"/>
<stop offset="1" stop-color="#BB5D0C"/>
</radialGradient>
<radialGradient id="paint16_radial_394_5234" cx="0" cy="0" r="1" gradientUnits="userSpaceOnUse" gradientTransform="translate(87.5 29) rotate(90) scale(29 87.5)">
<stop stop-color="#F78F35"/>
<stop offset="1" stop-color="#BB5D0C"/>
</radialGradient>
<radialGradient id="paint17_radial_394_5234" cx="0" cy="0" r="1" gradientUnits="userSpaceOnUse" gradientTransform="translate(87.5 29) rotate(90) scale(29 87.5)">
<stop stop-color="#F78F35"/>
<stop offset="1" stop-color="#BB5D0C"/>
</radialGradient>
<radialGradient id="paint18_radial_394_5234" cx="0" cy="0" r="1" gradientUnits="userSpaceOnUse" gradientTransform="translate(87.5 29) rotate(90) scale(29 87.5)">
<stop stop-color="#F78F35"/>
<stop offset="1" stop-color="#BB5D0C"/>
</radialGradient>
<radialGradient id="paint19_radial_394_5234" cx="0" cy="0" r="1" gradientUnits="userSpaceOnUse" gradientTransform="translate(87.5 29) rotate(90) scale(29 87.5)">
<stop stop-color="#F78F35"/>
<stop offset="1" stop-color="#BB5D0C"/>
</radialGradient>
<radialGradient id="paint20_radial_394_5234" cx="0" cy="0" r="1" gradientUnits="userSpaceOnUse" gradientTransform="translate(87.5 29) rotate(90) scale(29 87.5)">
<stop stop-color="#F78F35"/>
<stop offset="1" stop-color="#BB5D0C"/>
</radialGradient>
<radialGradient id="paint21_radial_394_5234" cx="0" cy="0" r="1" gradientUnits="userSpaceOnUse" gradientTransform="translate(87.5 29) rotate(90) scale(29 87.5)">
<stop stop-color="#F78F35"/>
<stop offset="1" stop-color="#BB5D0C"/>
</radialGradient>
<radialGradient id="paint22_radial_394_5234" cx="0" cy="0" r="1" gradientUnits="userSpaceOnUse" gradientTransform="translate(87.5 29) rotate(90) scale(29 87.5)">
<stop stop-color="#F78F35"/>
<stop offset="1" stop-color="#BB5D0C"/>
</radialGradient>
<radialGradient id="paint23_radial_394_5234" cx="0" cy="0" r="1" gradientUnits="userSpaceOnUse" gradientTransform="translate(87.5 29) rotate(90) scale(29 87.5)">
<stop stop-color="#F78F35"/>
<stop offset="1" stop-color="#BB5D0C"/>
</radialGradient>
<radialGradient id="paint24_radial_394_5234" cx="0" cy="0" r="1" gradientUnits="userSpaceOnUse" gradientTransform="translate(87.5 29) rotate(90) scale(29 87.5)">
<stop stop-color="#F78F35"/>
<stop offset="1" stop-color="#BB5D0C"/>
</radialGradient>
<radialGradient id="paint25_radial_394_5234" cx="0" cy="0" r="1" gradientUnits="userSpaceOnUse" gradientTransform="translate(87.5 29) rotate(90) scale(29 87.5)">
<stop stop-color="#F78F35"/>
<stop offset="1" stop-color="#BB5D0C"/>
</radialGradient>
<radialGradient id="paint26_radial_394_5234" cx="0" cy="0" r="1" gradientUnits="userSpaceOnUse" gradientTransform="translate(87.5 29) rotate(90) scale(29 87.5)">
<stop stop-color="#F78F35"/>
<stop offset="1" stop-color="#BB5D0C"/>
</radialGradient>
<radialGradient id="paint27_radial_394_5234" cx="0" cy="0" r="1" gradientUnits="userSpaceOnUse" gradientTransform="translate(87.5 29) rotate(90) scale(29 87.5)">
<stop stop-color="#F78F35"/>
<stop offset="1" stop-color="#BB5D0C"/>
</radialGradient>
</defs>
</svg>
