<svg width="138" height="142" viewBox="0 0 138 142" fill="none" xmlns="http://www.w3.org/2000/svg">
<path d="M60.0513 30.1766C64.7723 32.4142 68.3296 34.5524 71.2894 37.1504C72.1574 37.9123 72.9741 38.714 73.7537 39.5691C74.1152 39.9656 74.4688 40.374 74.8158 40.795C77.1892 43.675 79.2562 47.1609 81.473 51.7028H73.7537V71.3952H60.0513V30.1766Z" fill="white"/>
<path fill-rule="evenodd" clip-rule="evenodd" d="M45.7336 0.374017C46.4587 0.0100324 47.0697 -0.105022 47.8064 0.103264C48.7363 0.366246 49.3476 1.21562 49.7193 2.108C49.9745 2.72068 50.4217 3.23407 50.9934 3.57099L62.3964 10.2917L76.1635 19.8866C76.6675 20.2385 77.2676 20.4272 77.8822 20.4272H78.1445C78.7728 20.4272 79.3551 20.757 79.6783 21.2959L79.7362 21.3926C85.1715 27.8266 88.172 31.499 92.1287 40.0241C95.6207 38.5415 98.07 35.0794 98.07 31.0453C98.07 25.6609 93.7066 21.296 88.3242 21.2959H82.7652C81.7404 19.6287 80.8037 18.8662 78.6747 17.9174L74.8832 15.5122L66.7921 10.2917H92.4734C103.132 10.2918 111.772 18.9352 111.772 29.5975V32.4935C111.772 40.8014 106.526 47.8837 99.1673 50.6063L113.098 71.3952H96.4069C92.04 64.6854 87.776 57.937 83.9695 51.7992C83.6925 51.3526 83.4177 50.9085 83.145 50.4675C81.3887 47.2487 79.833 44.438 77.954 41.9233L77.7712 41.6809C77.5432 41.3815 77.3101 41.0862 77.0714 40.795C76.6189 40.2429 76.159 39.705 75.6908 39.1805C75.0616 38.4757 74.4169 37.7944 73.7537 37.1337C69.9862 33.3804 65.7136 30.1102 60.148 27.0877L60.0513 27.0219C58.9552 26.2766 48.8708 19.4571 47.4107 19.848C47.2717 19.8853 47.1079 20.072 46.9263 20.3744C46.4035 21.2455 45.7341 23.0771 45.0908 25.0676C44.1049 28.1181 43.1044 31.4715 42.8426 32.3654L42.778 32.5899L42.6412 32.968C42.0319 34.6642 39.5951 41.5793 39.5947 43.6908L39.5959 43.714C39.7019 44.7269 46.4911 49.2081 52.2342 51.1236C52.8921 51.343 53.5949 51.4762 54.2619 51.5545C55.9141 51.7485 57.3485 51.6061 57.3485 51.6061H57.3497C56.4359 52.798 55.4681 53.8754 54.4633 54.8381L54.2619 55.0292L54.0976 55.1884C51.5109 57.6749 48.2289 59.6584 44.5783 60.5051C43.2652 60.8234 41.9764 60.9711 40.7438 60.9495C40.7421 60.9495 40.7404 60.9497 40.7387 60.9497L40.7385 60.9493C35.275 60.8513 30.9157 57.4226 30.4278 50.7373C28.7451 50.2575 28.5403 48.9088 28.7874 45.6214C25.4785 43.0228 24.867 41.4665 28.7874 38.2853L30.3419 32.8883C30.3967 32.6981 30.357 32.4509 30.2224 32.3057C29.914 31.9729 29.5766 31.6002 29.6976 31.1629L32.9366 19.462L34.4804 15.4077C33.9549 13.3829 34.4644 12.2742 37.3754 10.3882C37.3072 8.95054 37.4316 8.18651 39.1122 7.2028L44.5964 1.27413C44.9271 0.91662 45.2984 0.592481 45.7336 0.374017ZM33.0191 43.8244C32.3796 43.8244 31.8612 44.343 31.8612 44.9827C31.8612 45.6225 32.3796 46.141 33.0191 46.141C33.6586 46.141 34.177 45.6225 34.177 44.9827C34.177 44.343 33.6586 43.8244 33.0191 43.8244ZM29.8484 42.0869C28.9906 42.0869 28.4425 43.0018 28.8471 43.7584C29.2674 44.5443 30.3872 44.562 30.832 43.7898C31.2681 43.0326 30.722 42.087 29.8484 42.0869ZM31.5715 32.7235L29.4246 38.2604L31.8873 40.7239L34.8714 21.6719L31.5715 32.7235ZM77.7923 22.0087C77.1529 22.0087 76.6345 22.5273 76.6344 23.167C76.6344 23.8067 77.1528 24.3256 77.7923 24.3256C78.4318 24.3255 78.9502 23.8067 78.9502 23.167C78.9502 22.5273 78.4318 22.0087 77.7923 22.0087ZM51.5458 12.742L74.3184 22.781L51.5458 8.30162V12.742ZM37.2648 12.5488C36.6254 12.5489 36.107 13.0675 36.1069 13.7072C36.1069 14.3469 36.6253 14.8657 37.2648 14.8657C37.9043 14.8657 38.4227 14.3469 38.4227 13.7072C38.4226 13.0675 37.9043 12.5488 37.2648 12.5488Z" fill="white"/>
<path d="M0 114.232L11.0537 88.9641H13.8856L24.5738 114.232H19.5494L17.5854 109.48H6.89711L4.97871 114.232H0ZM8.58713 105.322H15.941L12.2869 96.275L8.58713 105.322Z" fill="white"/>
<path d="M27.3183 88.9641H31.4749V106.373C31.4749 108.658 31.9773 109.435 33.2106 110.166L35.4487 111.445L33.6216 114.735C29.3281 112.724 27.3183 111.217 27.3183 107.15V88.9641Z" fill="white"/>
<path d="M44.4669 114.232V88.9641H56.4797C62.1436 88.9641 65.5693 92.6652 65.5693 97.6458C65.5693 101.301 63.0571 104.18 59.6771 105.231L65.9804 114.232H60.1338L54.8354 106.282H49.1259V114.232H44.4669ZM49.1259 93.3963V101.85H56.1143C59.4487 101.85 60.9103 99.8847 60.9103 97.6458C60.9103 95.3611 59.4487 93.3963 56.1143 93.3963H49.1259Z" fill="white"/>
<path d="M84.4982 114.232V111.856H84.4068C83.0822 113.638 80.6614 114.735 78.0122 114.735C71.6175 114.735 67.9177 109.526 67.9177 104.5C67.9177 99.702 71.9372 94.2645 78.2405 94.2645C81.1181 94.2645 83.3106 95.4982 84.4068 97.1431H84.4982V94.7671H88.6547V114.232H84.4982ZM72.3483 104.5C72.3483 108.018 75.1802 110.805 78.5603 110.805C81.849 110.805 84.6352 108.018 84.6352 104.5C84.6352 100.981 81.849 98.1941 78.5603 98.1941C75.1802 98.1941 72.3483 100.981 72.3483 104.5Z" fill="white"/>
<path d="M94.0017 106.008V94.7671H98.2039V106.19C98.2039 109.435 100.214 110.805 102.772 110.805C106.015 110.805 107.613 108.795 107.613 105.779V94.7671H111.77V113.638C111.77 119.578 106.517 122.183 102.909 122.183C98.5236 122.183 96.5596 120.538 94.6412 118.39L98.2039 116.197C99.5285 117.476 100.853 118.253 102.635 118.253C105.421 118.253 107.842 116.563 107.842 113.136V112.085H107.75C106.106 113.958 104.599 114.735 101.904 114.735C97.5644 114.735 94.0017 111.491 94.0017 106.008Z" fill="white"/>
<path d="M132.182 114.232V111.856H132.09C130.766 113.638 128.345 114.735 125.696 114.735C119.301 114.735 115.601 109.526 115.601 104.5C115.601 99.702 119.621 94.2645 125.924 94.2645C128.802 94.2645 130.994 95.4982 132.09 97.1431H132.182V94.7671H136.338V114.232H132.182ZM120.032 104.5C120.032 108.018 122.864 110.805 126.244 110.805C129.532 110.805 132.319 108.018 132.319 104.5C132.319 100.981 129.532 98.1941 126.244 98.1941C122.864 98.1941 120.032 100.981 120.032 104.5Z" fill="white"/>
<path d="M0.988106 139.578V131.879H2.40764V139.578H0.988106Z" fill="white"/>
<path d="M4.77515 139.578V133.647H6.05552V134.399H6.06943C6.43128 133.842 7.08537 133.494 7.89256 133.494C9.13117 133.494 10.1889 134.524 10.1889 136V139.578H8.92241V136.278C8.92241 135.206 8.35182 134.761 7.50288 134.761C6.68178 134.761 6.05552 135.29 6.05552 136.264V139.578H4.77515Z" fill="white"/>
<path d="M11.8155 134.844V133.647H12.5392V132.074L13.8196 131.726V133.647H14.8355V134.844H13.8196V137.183C13.8196 137.823 13.9587 138.116 14.3484 138.339L15.0303 138.728L14.4597 139.731C13.1515 139.118 12.5392 138.659 12.5392 137.42V134.844H11.8155Z" fill="white"/>
<path d="M21.1366 137.684L22.2082 138.297C21.4985 139.188 20.5243 139.731 19.4527 139.731C17.393 139.731 16.1822 138.185 16.1822 136.612C16.1822 135.039 17.393 133.494 19.4527 133.494C20.6913 133.494 22.5283 134.51 22.5283 136.821V137.058H17.6156C17.6852 137.963 18.5342 138.603 19.4248 138.603C20.1068 138.603 20.6913 138.283 21.1366 137.684ZM17.6156 136H21.0392C20.7748 135.095 20.0929 134.621 19.2857 134.621C18.4785 134.621 17.8105 135.123 17.6156 136Z" fill="white"/>
<path d="M24.3715 139.578V133.647H25.5683V134.301H25.5962C25.8049 133.814 26.2502 133.494 26.7652 133.494C27.0435 133.494 27.294 133.563 27.461 133.675L27.0018 134.928C26.8765 134.83 26.6538 134.761 26.5286 134.761C26.0693 134.761 25.6518 135.122 25.6518 135.652V139.578H24.3715Z" fill="white"/>
<path d="M28.7879 139.578V133.647H30.0683V134.399H30.0822C30.444 133.842 31.0981 133.494 31.9053 133.494C33.1439 133.494 34.2016 134.524 34.2016 136V139.578H32.9352V136.278C32.9352 135.206 32.3646 134.761 31.5156 134.761C30.6945 134.761 30.0683 135.29 30.0683 136.264V139.578H28.7879Z" fill="white"/>
<path d="M40.9776 139.578V138.854H40.9497C40.5461 139.397 39.8085 139.731 39.0014 139.731C37.053 139.731 35.9257 138.144 35.9257 136.612C35.9257 135.15 37.1504 133.494 39.0709 133.494C39.9477 133.494 40.6157 133.87 40.9497 134.371H40.9776V133.647H42.244V139.578H40.9776ZM37.2756 136.612C37.2756 137.684 38.1385 138.533 39.1684 138.533C40.1704 138.533 41.0193 137.684 41.0193 136.612C41.0193 135.54 40.1704 134.691 39.1684 134.691C38.1385 134.691 37.2756 135.54 37.2756 136.612Z" fill="white"/>
<path d="M43.8871 134.844V133.647H44.6108V132.074L45.8911 131.726V133.647H46.9071V134.844H45.8911V137.183C45.8911 137.823 46.0303 138.116 46.42 138.339L47.1019 138.728L46.5313 139.731C45.2231 139.118 44.6108 138.659 44.6108 137.42V134.844H43.8871Z" fill="white"/>
<path d="M48.6295 139.578V133.647H49.896V139.578H48.6295ZM48.5599 132.436C48.5599 132.046 48.8661 131.726 49.2697 131.726C49.6594 131.726 49.9795 132.046 49.9795 132.436C49.9795 132.825 49.6594 133.146 49.2697 133.146C48.8661 133.146 48.5599 132.825 48.5599 132.436Z" fill="white"/>
<path d="M51.6486 136.612C51.6486 135.039 52.8594 133.494 54.9191 133.494C56.9927 133.494 58.1896 135.039 58.1896 136.612C58.1896 138.185 56.9927 139.731 54.9191 139.731C52.8594 139.731 51.6486 138.185 51.6486 136.612ZM52.9986 136.612C52.9986 137.684 53.8058 138.533 54.9191 138.533C56.0325 138.533 56.8536 137.684 56.8536 136.612C56.8536 135.54 56.0325 134.691 54.9191 134.691C53.8058 134.691 52.9986 135.54 52.9986 136.612Z" fill="white"/>
<path d="M59.9353 139.578V133.647H61.2157V134.399H61.2296C61.5914 133.842 62.2455 133.494 63.0527 133.494C64.2913 133.494 65.349 134.524 65.349 136V139.578H64.0826V136.278C64.0826 135.206 63.512 134.761 62.663 134.761C61.8419 134.761 61.2157 135.29 61.2157 136.264V139.578H59.9353Z" fill="white"/>
<path d="M72.125 139.578V138.854H72.0971C71.6935 139.397 70.9559 139.731 70.1488 139.731C68.2004 139.731 67.0731 138.144 67.0731 136.612C67.0731 135.15 68.2978 133.494 70.2183 133.494C71.0951 133.494 71.7631 133.87 72.0971 134.371H72.125V133.647H73.3914V139.578H72.125ZM68.423 136.612C68.423 137.684 69.2859 138.533 70.3158 138.533C71.3178 138.533 72.1667 137.684 72.1667 136.612C72.1667 135.54 71.3178 134.691 70.3158 134.691C69.2859 134.691 68.423 135.54 68.423 136.612Z" fill="white"/>
<path d="M75.6051 131.879H76.8715V137.183C76.8715 137.879 77.0246 138.116 77.4004 138.339L78.0823 138.728L77.5256 139.731C76.2174 139.118 75.6051 138.659 75.6051 137.42V131.879Z" fill="white"/>
<path d="M88.0947 137.322L89.2359 138.158C88.387 139.23 87.1901 139.731 85.9654 139.731C83.6552 139.731 81.8321 137.99 81.8321 135.735C81.8321 133.48 83.6552 131.726 85.9654 131.726C87.1901 131.726 88.387 132.227 89.2359 133.299L88.0669 134.19C87.5798 133.48 86.8283 133.076 85.9654 133.076C84.5737 133.076 83.3212 134.231 83.3212 135.735C83.3212 137.225 84.5737 138.394 85.9654 138.394C86.8283 138.394 87.6076 137.99 88.0947 137.322Z" fill="white"/>
<path d="M90.5151 136.612C90.5151 135.039 91.7258 133.494 93.7855 133.494C95.8592 133.494 97.056 135.039 97.056 136.612C97.056 138.185 95.8592 139.731 93.7855 139.731C91.7258 139.731 90.5151 138.185 90.5151 136.612ZM91.865 136.612C91.865 137.684 92.6722 138.533 93.7855 138.533C94.8989 138.533 95.72 137.684 95.72 136.612C95.72 135.54 94.8989 134.691 93.7855 134.691C92.6722 134.691 91.865 135.54 91.865 136.612Z" fill="white"/>
<path d="M98.8018 139.578V135.86C98.8018 134.357 99.8038 133.494 100.973 133.494C101.863 133.494 102.518 133.911 102.74 134.538H102.768C103.005 133.911 103.659 133.494 104.549 133.494C105.705 133.494 106.721 134.357 106.721 135.86V139.578H105.44V135.874C105.44 135.164 104.981 134.761 104.466 134.761C103.854 134.761 103.394 135.136 103.394 136.055V139.578H102.128V136.055C102.128 135.136 101.669 134.761 101.056 134.761C100.527 134.761 100.082 135.164 100.082 135.874V139.578H98.8018Z" fill="white"/>
<path d="M110.166 133.647V134.371H110.18C110.639 133.814 111.321 133.494 112.128 133.494C114.077 133.494 115.204 135.081 115.204 136.612C115.204 138.074 113.993 139.731 112.073 139.731C111.196 139.731 110.514 139.355 110.18 138.854H110.166V141.624H108.886V133.647H110.166ZM113.854 136.612C113.854 135.54 113.005 134.691 111.975 134.691C110.973 134.691 110.11 135.54 110.11 136.612C110.11 137.684 110.973 138.533 111.975 138.533C113.005 138.533 113.854 137.684 113.854 136.612Z" fill="white"/>
<path d="M121.551 139.578V138.854H121.523C121.119 139.397 120.382 139.731 119.575 139.731C117.626 139.731 116.499 138.144 116.499 136.612C116.499 135.15 117.724 133.494 119.644 133.494C120.521 133.494 121.189 133.87 121.523 134.371H121.551V133.647H122.817V139.578H121.551ZM117.849 136.612C117.849 137.684 118.712 138.533 119.742 138.533C120.744 138.533 121.593 137.684 121.593 136.612C121.593 135.54 120.744 134.691 119.742 134.691C118.712 134.691 117.849 135.54 117.849 136.612Z" fill="white"/>
<path d="M125.003 139.578V133.647H126.284V134.399H126.297C126.659 133.842 127.313 133.494 128.121 133.494C129.359 133.494 130.417 134.524 130.417 136V139.578H129.15V136.278C129.15 135.206 128.58 134.761 127.731 134.761C126.91 134.761 126.284 135.29 126.284 136.264V139.578H125.003Z" fill="white"/>
<path d="M132.586 137.072V133.647H133.867V137.127C133.867 138.116 134.479 138.533 135.258 138.533C136.246 138.533 136.734 137.921 136.734 137.002V133.647H138V139.397C138 141.206 136.4 142 135.3 142C133.964 142 133.366 141.499 132.781 140.844L133.867 140.176C134.27 140.566 134.674 140.803 135.217 140.803C136.066 140.803 136.803 140.288 136.803 139.243V138.923H136.775C136.274 139.494 135.815 139.731 134.994 139.731C133.672 139.731 132.586 138.742 132.586 137.072Z" fill="white"/>
</svg>
