<svg width="24" height="24" viewBox="0 0 24 24" fill="none" xmlns="http://www.w3.org/2000/svg">
<path fill-rule="evenodd" clip-rule="evenodd" d="M11.9999 2C10.4086 2 8.88252 2.63214 7.7573 3.75736C6.63208 4.88258 5.99994 6.4087 5.99994 8V9.875L5.09994 9.2C4.99489 9.12121 4.87534 9.06388 4.74812 9.03129C4.62091 8.99869 4.48852 8.99148 4.35852 9.01005C4.22852 9.02862 4.10345 9.07262 3.99045 9.13953C3.87745 9.20643 3.77874 9.29494 3.69994 9.4C3.62115 9.50506 3.56382 9.62461 3.53123 9.75182C3.49864 9.87903 3.49142 10.0114 3.50999 10.1414C3.52857 10.2714 3.57256 10.3965 3.63947 10.5095C3.70638 10.6225 3.79489 10.7212 3.89994 10.8L5.76594 12.2C5.32194 13.368 4.23894 14.59 2.48594 15.643C2.37096 15.7136 2.27128 15.8065 2.19279 15.9162C2.1143 16.0259 2.05859 16.1503 2.02895 16.2819C1.99931 16.4135 1.99634 16.5497 2.02021 16.6825C2.04408 16.8153 2.09431 16.9419 2.16794 17.055C3.28594 18.732 5.05994 20 6.99994 20C8.78394 20 10.0069 22 11.9999 22C14.0109 22 15.2089 20 16.9999 20C18.9399 20 20.7139 18.732 21.8319 17.055C21.9056 16.9419 21.9558 16.8153 21.9797 16.6825C22.0035 16.5497 22.0006 16.4135 21.9709 16.2819C21.9413 16.1503 21.8856 16.0259 21.8071 15.9162C21.7286 15.8065 21.6289 15.7136 21.5139 15.643C19.7609 14.59 18.6779 13.368 18.2339 12.2L20.0999 10.8C20.3121 10.6409 20.4524 10.404 20.4899 10.1414C20.5274 9.87887 20.4591 9.61217 20.2999 9.4C20.1408 9.18783 19.9039 9.04756 19.6414 9.01005C19.3788 8.97254 19.1121 9.04087 18.8999 9.2L17.9999 9.875V8C17.9999 6.4087 17.3678 4.88258 16.2426 3.75736C15.1174 2.63214 13.5912 2 11.9999 2Z" fill="#BB5D0C"/>
</svg>
