<svg width="78" height="78" viewBox="0 0 78 78" fill="none" xmlns="http://www.w3.org/2000/svg">
<path d="M1.67398 38.5334C1.67215 45.087 3.39746 51.486 6.67811 57.1262L1.36023 76.397L21.2306 71.226C26.7265 74.1954 32.8842 75.7514 39.1416 75.7518H39.1581C59.8152 75.7518 76.6306 59.0686 76.6395 38.5628C76.6434 28.6262 72.7481 19.2826 65.6707 12.2529C58.5947 5.22382 49.1837 1.35073 39.1566 1.34619C18.497 1.34619 1.68281 18.0285 1.67428 38.5334" fill="url(#paint0_linear_394_5235)"/>
<path d="M0.335821 38.5211C0.333688 45.3104 2.12084 51.9383 5.51846 57.7805L0.0098877 77.7421L20.5927 72.3858C26.2639 75.4547 32.6492 77.0728 39.1465 77.0752H39.1633C60.5615 77.0752 77.981 59.7918 77.9901 38.5519C77.9938 28.2584 73.9583 18.5788 66.6281 11.2973C59.2971 4.0167 49.5496 0.00423256 39.1633 0C17.7613 0 0.34435 17.2809 0.335821 38.5211ZM12.5936 56.7743L11.8251 55.5635C8.59441 50.4651 6.8892 44.5734 6.89164 38.5235C6.89834 20.8692 21.3746 6.50605 39.1754 6.50605C47.7959 6.50967 55.8973 9.84493 61.9907 15.8963C68.0839 21.9482 71.4367 29.9931 71.4346 38.5495C71.4267 56.2038 56.9501 70.5688 39.1633 70.5688H39.1505C33.3589 70.5658 27.6789 69.0221 22.7253 66.105L21.5464 65.4112L9.33218 68.5895L12.5936 56.7743Z" fill="url(#paint1_linear_394_5235)"/>
<path d="M29.459 22.4171C28.7322 20.8138 27.9674 20.7815 27.2762 20.7534C26.7102 20.7292 26.0633 20.731 25.4169 20.731C24.7699 20.731 23.7187 20.9725 22.8301 21.9355C21.9407 22.8993 19.4343 25.2284 19.4343 29.9655C19.4343 34.7027 22.9108 39.2811 23.3955 39.9241C23.8807 40.566 30.107 50.5983 39.9678 54.4578C48.163 57.6652 49.8308 57.0273 51.6094 56.8665C53.3883 56.7062 57.3495 54.5379 58.1576 52.2895C58.9663 50.0415 58.9663 48.1144 58.7239 47.7117C58.4814 47.3105 57.8344 47.0696 56.8642 46.5883C55.894 46.107 51.1241 43.7773 50.235 43.4559C49.3455 43.1348 48.6988 42.9746 48.0518 43.9387C47.4049 44.9013 45.547 47.0696 44.9808 47.7117C44.4151 48.3554 43.8488 48.4355 42.8789 47.9539C41.9082 47.4708 38.7838 46.4553 35.077 43.1753C32.1929 40.6231 30.2459 37.4714 29.6799 36.5072C29.1139 35.5446 29.6193 35.0228 30.1057 34.543C30.5416 34.1116 31.0762 33.4187 31.5618 32.8567C32.0455 32.2943 32.2069 31.8932 32.5304 31.251C32.8542 30.6083 32.6922 30.0459 32.45 29.5643C32.2069 29.0827 30.3217 24.3208 29.459 22.4171Z" fill="white"/>
<defs>
<linearGradient id="paint0_linear_394_5235" x1="3765.32" y1="7506.43" x2="3765.32" y2="1.34619" gradientUnits="userSpaceOnUse">
<stop stop-color="#1FAF38"/>
<stop offset="1" stop-color="#60D669"/>
</linearGradient>
<linearGradient id="paint1_linear_394_5235" x1="3899.02" y1="7774.21" x2="3899.02" y2="0" gradientUnits="userSpaceOnUse">
<stop stop-color="#F9F9F9"/>
<stop offset="1" stop-color="white"/>
</linearGradient>
</defs>
</svg>
