<svg width="63" height="63" viewBox="0 0 63 63" fill="none" xmlns="http://www.w3.org/2000/svg">
<path d="M31.4299 62.8606C48.7882 62.8606 62.8598 48.7888 62.8598 31.4303C62.8598 14.0718 48.7882 0 31.4299 0C14.0716 0 0 14.0718 0 31.4303C0 48.7888 14.0716 62.8606 31.4299 62.8606Z" fill="#BB5D0C" fill-opacity="0.08"/>
<path d="M45.7725 24.3864C45.7725 15.901 38.4263 9.13155 29.747 10.0908C23.0267 10.8336 17.6643 16.3226 17.0598 23.0567C16.6435 27.6943 18.4308 31.9258 21.4922 34.8264C23.9657 37.1698 25.5783 40.2782 26.2422 43.6206L26.2426 43.6225C26.2978 43.9006 26.5416 44.1004 26.8249 44.1004H35.9476C36.2309 44.1004 36.4748 43.9002 36.53 43.6225C37.215 40.1733 39.0102 37.0792 41.5092 34.6051C44.1415 31.9987 45.7725 28.3838 45.7725 24.3864Z" fill="#BB5D0C"/>
<path d="M29.1009 44.1004C28.7928 37.3513 26.7706 29.7845 23.149 24.2797C23.6599 24.9188 24.6259 25.2901 25.4439 25.2615C26.2619 25.233 27.0554 24.7994 27.5209 24.1264C27.7441 23.8037 27.8963 23.4156 27.8617 23.0248C27.8271 22.6341 27.5754 22.2497 27.2001 22.1355C26.6474 21.9671 26.0548 22.4646 25.9632 23.035C25.8715 23.6053 26.1608 24.176 26.5493 24.6036C27.1858 25.3036 28.1146 25.7297 29.0603 25.7548C30.0064 25.78 30.9562 25.4043 31.6291 24.7389C32.0195 24.3526 32.3284 23.8341 32.2927 23.2859C32.257 22.7378 31.7697 22.2065 31.2249 22.2752C30.8059 22.3282 30.4813 22.7167 30.4137 23.1338C30.346 23.5508 30.4952 23.9784 30.7289 24.3301C31.2576 25.1262 32.2438 25.5937 33.1948 25.4986C34.1458 25.4035 35.0201 24.7498 35.38 23.8646C35.5533 23.4392 35.5363 22.8257 35.1076 22.6615C34.6635 22.4913 34.2273 22.9895 34.1578 23.4603C34.0372 24.2752 34.5452 25.106 35.2718 25.4941C35.9985 25.8822 36.8927 25.8709 37.6712 25.6015C38.4497 25.3321 39.0223 24.8445 39.6231 24.2805C36.0015 29.7849 33.9793 37.3516 33.6712 44.1012" stroke="white" stroke-width="0.75" stroke-miterlimit="10" stroke-linecap="round" stroke-linejoin="round"/>
<path d="M23.68 14.9176C21.9599 16.0287 20.7418 17.5969 20.0561 19.5222C19.763 20.3446 20.3875 21.2915 21.1852 21.5109C22.0801 21.757 22.8797 21.2073 23.1739 20.3818C23.5661 19.2802 24.3326 18.342 25.3118 17.7097C27.0537 16.5844 25.4346 13.7841 23.68 14.9176Z" fill="white"/>
<path d="M35.806 45.9066H26.9674C26.6198 45.9066 26.338 45.6248 26.338 45.2772V44.7305C26.338 44.383 26.6198 44.1012 26.9674 44.1012H35.806C36.1536 44.1012 36.4354 44.383 36.4354 44.7305V45.2772C36.4354 45.6248 36.1536 45.9066 35.806 45.9066Z" fill="#BB5D0C"/>
<path d="M35.8058 47.712H26.9672C26.6196 47.712 26.3378 47.4302 26.3378 47.0826V46.536C26.3378 46.1884 26.6196 45.9066 26.9672 45.9066H35.8058C36.1533 45.9066 36.4351 46.1884 36.4351 46.536V47.0826C36.4351 47.4302 36.1533 47.712 35.8058 47.712Z" fill="white"/>
<path d="M35.8058 49.5172H26.9672C26.6196 49.5172 26.3378 49.2354 26.3378 48.8878V48.3411C26.3378 47.9936 26.6196 47.7118 26.9672 47.7118H35.8058C36.1533 47.7118 36.4351 47.9936 36.4351 48.3411V48.8878C36.4351 49.2354 36.1533 49.5172 35.8058 49.5172Z" fill="#BB5D0C"/>
<path d="M33.0634 51.3229C33.0634 52.249 32.3127 53.0001 31.3866 53.0001C30.4604 53.0001 29.7097 52.2494 29.7097 51.3229C29.7097 50.3967 30.4604 49.646 31.3866 49.646C32.3124 49.646 33.0634 50.3967 33.0634 51.3229Z" fill="#BB5D0C"/>
<path d="M35.8058 51.3225H26.9672C26.6196 51.3225 26.3378 51.0407 26.3378 50.6931V50.1464C26.3378 49.7989 26.6196 49.5171 26.9672 49.5171H35.8058C36.1533 49.5171 36.4351 49.7989 36.4351 50.1464V50.6931C36.4351 51.0407 36.1533 51.3225 35.8058 51.3225Z" fill="white"/>
</svg>
