<svg width="64" height="64" viewBox="0 0 64 64" fill="none" xmlns="http://www.w3.org/2000/svg">
<path d="M31.4299 64C48.7882 64 62.8598 49.9282 62.8598 32.5697C62.8598 15.2112 48.7882 1.1394 31.4299 1.1394C14.0716 1.1394 0 15.2112 0 32.5697C0 49.9282 14.0716 64 31.4299 64Z" fill="#BB5D0C" fill-opacity="0.08"/>
<path d="M31.4296 58.6294C17.0598 58.6294 5.37061 46.94 5.37061 32.5701C5.37061 18.2001 17.0598 6.51074 31.4296 6.51074C45.7994 6.51074 57.4886 18.2001 57.4886 32.5701C57.4886 46.9388 45.7994 58.6294 31.4296 58.6294ZM31.4296 11.2391C19.6682 11.2391 10.0989 20.8085 10.0989 32.5701C10.0989 44.3316 19.6682 53.901 31.4296 53.901C43.1922 53.901 52.7603 44.3316 52.7603 32.5701C52.7603 20.8085 43.1922 11.2391 31.4296 11.2391Z" fill="#BB5D0C"/>
<path d="M31.4292 49.0692C22.3312 49.0692 14.9297 41.6676 14.9297 32.5695C14.9297 23.4714 22.3312 16.0698 31.4292 16.0698C40.5272 16.0698 47.9288 23.4714 47.9288 32.5695C47.9288 41.6676 40.5272 49.0692 31.4292 49.0692ZM31.4292 20.7981C24.9383 20.7981 19.658 26.0785 19.658 32.5695C19.658 39.0605 24.9383 44.3409 31.4292 44.3409C37.9201 44.3409 43.2004 39.0605 43.2004 32.5695C43.2004 26.0785 37.9201 20.7981 31.4292 20.7981Z" fill="#BB5D0C"/>
<path d="M38.3361 32.57C38.3361 36.384 35.2443 39.4759 31.4303 39.4759C27.6163 39.4759 24.5245 36.384 24.5245 32.57C24.5245 28.7559 27.6163 25.6641 31.4303 25.6641C35.2443 25.6641 38.3361 28.7559 38.3361 32.57Z" fill="#BB5D0C"/>
<path d="M32.5686 32.1403C32.3875 32.1403 32.2051 32.0706 32.0668 31.9322C31.7889 31.6544 31.7889 31.2052 32.0668 30.9285L53.8246 9.17042C54.1025 8.89257 54.5517 8.89257 54.8283 9.17042C55.1062 9.44828 55.1062 9.8975 54.8283 10.1741L33.0705 31.9322C32.9322 32.0706 32.751 32.1403 32.5686 32.1403Z" fill="#BB5D0C"/>
<path d="M57.6852 10.6563H53.3436V6.31348L59.657 0V4.3416H63.9998L57.6852 10.6563Z" fill="#BB5D0C"/>
</svg>
